<svg xmlns="http://www.w3.org/2000/svg" viewBox="0 0 321.64 131.33"><defs><style>.cls-1{fill:#ffd00b;}.cls-2{fill:#fff;}</style></defs><g id="Livello_2" data-name="Livello 2"><g id="Livello_1-2" data-name="Livello 1"><path class="cls-1" d="M164.58,70.64l-.3.48c5.79-3.77,11.21-6.88,16.09-9.44L177.88,49Z"/><path class="cls-1" d="M246.76,79.57l7.64-31.41C260.87,21.56,243.38,0,215.33,0H102L97,17.85l.27,0c17.35,2.28,27.19,16.78,23,33.92l-7.64,31.37c-6.47,26.6,11,48.16,39.07,48.16H265.4l4.34-17.85C252.41,111.18,242.6,96.69,246.76,79.57Zm-2.63-44.95a16.24,16.24,0,0,1-4.48,3.54,103.48,103.48,0,0,1-9.24,4.78,11.63,11.63,0,0,0-2.53,2.16c-1,.87-1.89,1.79-2.82,2.71a.94.94,0,0,1-1,.3c-1.22-.33-2.47-.6-3.71-.92a1.16,1.16,0,0,0-.84,0c-2.85,1.54-5.95,2.54-8.91,3.84-1.34.59-2.66,1.2-4,1.84-3.37,1.91-6.94,4.16-10.58,6.65l10.92,41.33H188.56l-1.2-5.6-.11-.51c-.61-2.92-3.72-17.75-5.24-25-19.12,14.75-36.6,31.13-36.6,31.13h-19.6L179.09,24h7.51l8.19,31c4.1-1.67,7.25-2.72,9.21-3.32l.09,0c-.15-.16-.35-.35-.59-.57s-.47-.45-.72-.67l-.05,0c-1.16-1.1-2.36-2.19-3.56-3.27-.43-.38-.3-.48.15-.64a5,5,0,0,1,3.36.11,12.6,12.6,0,0,1,3.38,1.74,1.13,1.13,0,0,0,1.37.09c2.32-1.18,4.67-2.31,7.13-3.52-2.21-1.64-4.29-3.24-6.43-4.76-.52-.38-.42-.58,0-.93a4.71,4.71,0,0,1,4.12-1c4.31.67,8.65.95,13,1.37a1.44,1.44,0,0,0,.89-.23,95.36,95.36,0,0,1,10.4-5,16.7,16.7,0,0,1,6.9-1.32h.08c.42.05,1-.07,1.19.31S244.41,34.25,244.13,34.62Z"/><path class="cls-2" d="M100.56,34.6h-18c2.12,11,2.26,50.29-17,50.29-6.51,0-9.31-4.93-7.32-13.57L66.12,34.6H48.55L40.84,71.32c-2,8.64-6.65,13.57-13,13.57C21,84.89,18,79.7,20,71.32L24.75,48.7c3.59-16.09-9-17.28-22.48-14.49L0,44.85c6.92-.4,6.25,3.59,4.93,9.84L1.2,71.85c-3.59,17,5.05,27.67,21.68,27.67,8.65,0,17.3-2.53,23-10.9h0c3.19,9.83,15,12.09,26.2,10C101.63,92.73,103.76,56.16,100.56,34.6Z"/><path class="cls-2" d="M297.83,48.7h20.88l2.93-14H300.75l4.26-20h-14.9l-6.25,20H270.43l-2.66,12.77,11.84,1.19L274.28,74c-5.72,26.47,13.31,29.8,36.58,23.81l1.2-14.1c-11.44,4-22.34,3.19-19.56-10.11Z"/></g></g></svg>