<svg xmlns="http://www.w3.org/2000/svg" viewBox="0 0 172.75 131.33"><defs><style>.cls-1{fill:#ffd00b;}</style></defs><g id="Livello_2" data-name="Livello 2"><g id="Livello_1-2" data-name="Livello 1"><path class="cls-1" d="M83.38,61.69c-4.89,2.55-10.3,5.67-16.1,9.44l.3-.49L80.88,49Z"/><path class="cls-1" d="M149.77,79.57l7.64-31.41C163.88,21.56,146.39,0,118.34,0H5L0,17.85l.26,0c17.36,2.29,27.2,16.78,23,33.92L15.66,83.18c-6.47,26.59,11,48.15,39.07,48.15H168.41l4.34-17.84C155.42,111.18,145.6,96.7,149.77,79.57Zm-2.64-44.95a16.19,16.19,0,0,1-4.47,3.54,99.8,99.8,0,0,1-9.25,4.78,11.35,11.35,0,0,0-2.52,2.17c-1,.86-1.9,1.78-2.82,2.71a.94.94,0,0,1-1,.3c-1.23-.34-2.48-.61-3.72-.93a1.17,1.17,0,0,0-.84,0c-2.84,1.54-5.94,2.54-8.9,3.85-1.33.58-2.65,1.18-4,1.82-3.38,1.91-7,4.17-10.6,6.66l10.92,41.33H91.56l-1.2-5.6-.11-.51c-.61-2.92-3.72-17.74-5.24-25-19.12,14.74-36.6,31.12-36.6,31.12H28.82L82.09,24H89.6l8.2,31c4.1-1.66,7.25-2.72,9.21-3.32l.08,0c-.15-.16-.35-.34-.58-.56s-.47-.46-.72-.68l-.05,0q-1.76-1.65-3.56-3.27c-.43-.38-.3-.48.14-.64a5.06,5.06,0,0,1,3.37.12,12.32,12.32,0,0,1,3.38,1.74,1.14,1.14,0,0,0,1.36.09c2.33-1.18,4.68-2.32,7.14-3.53-2.21-1.64-4.29-3.24-6.43-4.76-.52-.38-.43-.58,0-.93a4.71,4.71,0,0,1,4.12-1c4.31.67,8.65,1,13,1.37a1.47,1.47,0,0,0,.9-.23,96.1,96.1,0,0,1,10.39-5,16.77,16.77,0,0,1,6.91-1.31h.08c.42.06,1-.07,1.18.31S147.42,34.25,147.13,34.62Z"/></g></g></svg>