<svg xmlns="http://www.w3.org/2000/svg" viewBox="0 0 682.21 131.33"><defs><style>.cls-1{fill:#ffd00b;}.cls-2{fill:#fff;}</style></defs><g id="Livello_2" data-name="Livello 2"><g id="Livello_1-2" data-name="Livello 1"><path class="cls-1" d="M369.33,61.69c-4.89,2.55-10.3,5.67-16.1,9.44l.3-.49L366.83,49Z"/><path class="cls-1" d="M435.72,79.57l7.64-31.41C449.83,21.56,432.34,0,404.29,0H291l-5,17.85.26,0c17.36,2.29,27.2,16.78,23,33.92l-7.63,31.38c-6.47,26.59,11,48.15,39.07,48.15H454.36l4.34-17.84C441.37,111.18,431.55,96.7,435.72,79.57Zm-2.64-44.95a16.19,16.19,0,0,1-4.47,3.54,99.8,99.8,0,0,1-9.25,4.78,11.35,11.35,0,0,0-2.52,2.17c-1,.86-1.9,1.78-2.82,2.71a.94.94,0,0,1-1,.3c-1.23-.34-2.48-.61-3.72-.93a1.17,1.17,0,0,0-.84,0c-2.84,1.54-5.94,2.54-8.9,3.85-1.33.58-2.65,1.18-4,1.82-3.38,1.91-6.95,4.17-10.6,6.66l10.92,41.33H377.51l-1.2-5.6-.11-.51c-.61-2.92-3.72-17.74-5.24-25-19.12,14.74-36.6,31.12-36.6,31.12H314.77L368,24h7.51l8.2,31c4.1-1.66,7.25-2.72,9.21-3.32l.08,0c-.15-.16-.35-.34-.58-.56s-.47-.46-.72-.68l-.05,0q-1.76-1.65-3.56-3.27c-.43-.38-.3-.48.14-.64a5.06,5.06,0,0,1,3.37.12A12.32,12.32,0,0,1,395,48.29a1.14,1.14,0,0,0,1.36.09c2.33-1.18,4.68-2.32,7.14-3.53-2.21-1.64-4.29-3.24-6.43-4.76-.52-.38-.43-.58,0-.93a4.71,4.71,0,0,1,4.12-1c4.31.67,8.65,1,13,1.37a1.47,1.47,0,0,0,.9-.23,96.1,96.1,0,0,1,10.39-5,16.77,16.77,0,0,1,6.91-1.31h.08c.42.06,1-.07,1.18.31S433.37,34.25,433.08,34.62Z"/><path class="cls-2" d="M100.56,34.6h-18c2.13,11,2.27,50.29-17,50.29-6.52,0-9.31-4.93-7.32-13.57L66.11,34.6H48.55L40.84,71.32c-2,8.64-6.65,13.57-13,13.57C21,84.89,18,79.7,20,71.32l4.8-22.61c3.59-16.1-9-17.29-22.48-14.5L0,44.85c6.92-.4,6.25,3.6,4.93,9.85L1.2,71.85c-3.59,17,5.05,27.67,21.68,27.67a32.14,32.14,0,0,0,12.6-2.31,23.49,23.49,0,0,0,10.41-8.59c3.2,9.83,15,12.1,26.21,10C101.63,92.73,103.76,56.16,100.56,34.6Z"/><polygon class="cls-2" points="126.43 98.72 107.81 98.72 121.24 35.41 139.87 35.41 126.43 98.72"/><path class="cls-1" d="M136.81,5.48c4.78,0,9,2.79,9,8.51,0,8.39-6.92,12.5-13.3,12.5-4.79.14-9-2.52-9-8.24C123.51,10.14,130.55,5.48,136.81,5.48Z"/><path class="cls-2" d="M205.86,53.36c3.59-13.57-8.25-20.48-23.41-20.48-15.43,0-29.53,6-32.06,21.15-2.79,15,13.17,17.29,25.67,19,4.26.66,8.92,1.2,7.85,6.38-1.46,5.72-7.58,7.32-13,7.32-5.31,0-9.84-2.26-8.91-7.58H143.74c-2.8,17,10.9,21.29,25.41,21.29,14.09.66,29.92-5.33,33.38-21,4-17.15-12-18.36-26.07-20.08-3.86-.4-8.11-.93-8.11-4.93,0-4.78,5.58-7.58,11.44-7.58,4.81,0,8.64,1.53,8.64,5.26a6.27,6.27,0,0,1-.13,1.26Z"/><path class="cls-2" d="M278.26,80.49,282,63.34a56.19,56.19,0,0,0,1.46-10.91c0-11-5.18-18.36-18.49-19q-1.09-.06-2.19-.06c-7.26,0-14.52,2-20.68,9.11l8.64-41H232.1L211.35,98.85H230L237.82,62c2-9,9.31-14.09,16.63-14.09S264,51.1,264,57.09c0,3-.93,6.92-2,12.11L259.5,81.43c-3.46,16.89,6.25,20.09,22.21,16.89l2.4-11.16C277.72,87.55,277.06,86.22,278.26,80.49Z"/><path class="cls-2" d="M486.79,48.71h20.88l2.93-14H489.71l4.26-20h-14.9l-6.25,20H459.38l-2.66,12.76,11.84,1.2L463.24,74c-5.72,26.47,13.3,29.79,36.58,23.8l1.2-14.1c-11.44,4-22.35,3.19-19.56-10.11Z"/><path class="cls-2" d="M562.9,32.61c-7.85,0-16.08,3.6-20.35,10.9,1.46-11.43-12.37-11.43-22.08-9.3l-2.39,11.38s0,.06,0,0c6.06-1,5.66,2.68,4.6,7.85-5.32,25.41-4.26,19.69-9.58,45.23h18.23l7.31-34.18c2.13-10,10.24-15.69,18.35-15.69a16.83,16.83,0,0,1,11.16,3.44,0,0,0,0,0,0,0l7.44-15.54C572.61,33.94,567.82,32.61,562.9,32.61Z"/><polygon class="cls-2" points="591 98.72 572.38 98.72 585.81 35.41 604.43 35.41 591 98.72"/><path class="cls-1" d="M601.38,5.48c4.78,0,9,2.79,9,8.51,0,8.39-6.92,12.5-13.3,12.5-4.79.14-9-2.52-9-8.24C588.08,10.14,595.12,5.48,601.38,5.48Z"/><path class="cls-2" d="M658.85,32.88a28,28,0,0,0-12.19,2.85,27.08,27.08,0,0,0-9.49,7.53c2.53-11.31-10.38-10.91-19.42-9l-2.39,11.7c6.38-.39,5.45,3.6,4,9.72l-14.92,71.46h17.3l7.59-36.75c2.13,6.79,9,9.72,17,9.59,18.75-.41,31.52-14.25,35.12-32.33C684.66,50,677.61,32.88,658.85,32.88Zm4.26,35.25c-2.92,8.65-7.85,16.36-18.22,16.36-7.32,0-10.38-5.85-10.38-13.3,0-11.71,7.58-22.48,17.82-22.48C664.18,48.31,665.91,59.75,663.11,68.13Z"/></g></g></svg>